PathFileType	4	(X/Y/Z)	D:\Share\Shared_Data\Ergonomics\Sit To Stand Pertubation\S2\Unperturbed.trc
DataRate	CameraRate	NumFrames	NumMarkers	Units	OrigDataRate	OrigDataStartFrame	OrigNumFrames	
100	100	18	18	m	100	3461	241
Frame#	Time	R_Toe			R_ASIS			R_Pelvis			V_Sacral			L_Pelvis			L_ASIS			Clavical			R_Acromium			L_Acromium			Sternum			Torso			R_Thigh_Med			R_Thigh_Lat			R_Thigh			R_Shank_Med			R_Shank_Lat			R_Shank			R_Heel			
		X1	Y1	Z1	X2	Y2	Z2	X3	Y3	Z3	X4	Y4	Z4	X5	Y5	Z5	X6	Y6	Z6	X7	Y7	Z7	X8	Y8	Z8	X9	Y9	Z9	X10	Y10	Z10	X11	Y11	Z11	X12	Y12	Z12	X13	Y13	Z13	X14	Y14	Z14	X15	Y15	Z15	X16	Y16	Z16	X17	Y17	Z17	X18	Y18	Z18	

3461	34.6	0.44242975	0.064156395	0.1473903	0.4622077	1.0259744	0.14992053	0.38687726	1.0259918	0.19073608	0.24884329	1.0235936	0.025328041	0.3462597	1.0325426	-0.15309846	0.44371301	1.0402999	-0.12494855	0.44236172	1.4526959	0.01753554	0.34155136	1.4671002	0.22321651	0.32860962	1.4855759	-0.16410155	0.49565179	1.2968853	0.0089845314	0.44978503	1.4162594	-0.099871513	0.35599307	0.49384082	0.094131783	0.3479292	0.51854321	0.18315318	0.45237015	0.67552002	0.16037891	0.30791733	0.1066786	0.10779888	0.28433926	0.10165255	0.19898782	0.30965936	0.37566125	0.21612032	0.20502599	0.061616138	0.15144659
3462	34.61	0.44243463	0.064157135	0.14738043	0.46216791	1.0259916	0.14975246	0.38686353	1.0259767	0.19056232	0.24875294	1.0235657	0.025301659	0.3460412	1.0325697	-0.15323659	0.44352707	1.0403817	-0.1251292	0.44211182	1.4527098	0.017318708	0.3413703	1.4672725	0.22296292	0.32851056	1.4856643	-0.16435718	0.49541574	1.2969176	0.0087902126	0.44958667	1.4163094	-0.10008073	0.35611841	0.49383652	0.09402832	0.3480434	0.51854578	0.1830318	0.45239551	0.67554236	0.16033847	0.30792178	0.10666393	0.10774363	0.28436932	0.10168577	0.19893567	0.30976309	0.37568393	0.21600768	0.20503691	0.061635311	0.15141461
3463	34.62	0.44243704	0.064158463	0.14737463	0.46209641	1.0259932	0.14960109	0.38680164	1.0259476	0.19039816	0.24864456	1.023507	0.025251165	0.34589542	1.0325754	-0.15337256	0.44335645	1.0404351	-0.12529035	0.44187991	1.4527023	0.017095825	0.34120612	1.4674293	0.22271564	0.32842596	1.4857122	-0.16461134	0.49518591	1.2969247	0.0086021109	0.44939508	1.4163257	-0.10029225	0.35616663	0.49382516	0.093932068	0.3480704	0.51854626	0.1829258	0.45234485	0.67555115	0.16032188	0.30792154	0.10664835	0.10769868	0.28438919	0.10171133	0.19889053	0.3097948	0.37570242	0.21590726	0.20504446	0.061647793	0.15138602
3464	34.63	0.44243652	0.064159927	0.14737296	0.46199481	1.0259797	0.14946777	0.38669006	1.0259048	0.19023991	0.24852216	1.0234265	0.025170115	0.34584647	1.0325613	-0.15350801	0.44320685	1.0404541	-0.12543206	0.44166385	1.4526752	0.016868313	0.34105032	1.4675621	0.2224758	0.32834521	1.4857131	-0.16485936	0.49496249	1.296906	0.008422121	0.44920853	1.4163041	-0.10050512	0.35614343	0.49380588	0.093843338	0.34802026	0.51854327	0.18283589	0.45222836	0.67554492	0.16032112	0.30791678	0.10663115	0.10766335	0.28439865	0.10172764	0.19885416	0.30976309	0.37571426	0.21582224	0.20504796	0.061653278	0.15136259
3465	34.64	0.44243277	0.064161415	0.14737508	0.46186566	1.0259525	0.14935312	0.38653003	1.0258491	0.190084	0.24838916	1.0233344	0.025054939	0.34591382	1.032531	-0.15364386	0.44308047	1.0404357	-0.12555585	0.4414621	1.4526315	0.01663777	0.34089557	1.4676658	0.22224188	0.32825906	1.4856638	-0.16509837	0.49474551	1.2968625	0.0082511368	0.44902505	1.4162439	-0.10071835	0.35605774	0.49377875	0.093761169	0.34790579	0.51853595	0.18276167	0.45205762	0.67552313	0.16032765	0.30790796	0.10661198	0.10763651	0.28439786	0.1017341	0.19882721	0.30967978	0.37571826	0.21575438	0.20504718	0.061651913	0.15134538
3466	34.65	0.44242578	0.064163048	0.1473804	0.46171231	1.0259135	0.14925655	0.38632672	1.0257827	0.18992831	0.24824838	1.0232397	0.024905178	0.34610449	1.0324897	-0.15378027	0.44297665	1.040381	-0.12566434	0.44127338	1.4525742	0.016405777	0.34073547	1.467739	0.22201178	0.32816086	1.4855647	-0.1653293	0.49453476	1.2967976	0.0080887308	0.44884311	1.4161478	-0.10093114	0.3559198	0.493745	0.093684357	0.34774121	0.51852448	0.18270172	0.45184589	0.67548779	0.16033328	0.30789529	0.10659091	0.10761708	0.284388	0.10173112	0.19880942	0.30955777	0.37571426	0.21570418	0.20504254	0.061643742	0.15133449
3467	34.66	0.4424158	0.06416478	0.14738824	0.46153894	1.0258662	0.14917584	0.38608978	1.0257101	0.18977356	0.24810229	1.0231506	0.02472382	0.34640112	1.0324409	-0.15391656	0.44289175	1.0402944	-0.12576077	0.44109668	1.4525066	0.016173824	0.34056534	1.4677828	0.22178419	0.32804721	1.4854203	-0.16555608	0.49432999	1.2967155	0.007933269	0.4486619	1.416021	-0.10114298	0.35574069	0.49370724	0.093612488	0.34754041	0.5185097	0.18265395	0.45160736	0.67544263	0.16033052	0.30787906	0.10656861	0.10760405	0.2843707	0.10171974	0.19879997	0.30940912	0.3757034	0.21567075	0.20503508	0.061628586	0.15132948
3468	34.67	0.44240311	0.064166435	0.14739807	0.46135007	1.0258143	0.14910712	0.38583258	1.0256367	0.18962274	0.24795273	1.0230727	0.024516979	0.34675351	1.0323856	-0.15405164	0.44282001	1.0401831	-0.12584859	0.44093082	1.4524309	0.015943193	0.34038226	1.4678018	0.22155858	0.32791867	1.4852401	-0.16578204	0.4941312	1.2966205	0.0077823868	0.44848172	1.4158715	-0.10135365	0.3555314	0.49366898	0.093545898	0.3473161	0.51849304	0.18261586	0.45135623	0.67539282	0.16031345	0.30785989	0.10654604	0.1075964	0.28434784	0.10170167	0.19879761	0.30924399	0.37568744	0.21565192	0.20502596	0.061606606	0.15132962
3469	34.68	0.4423884	0.064167961	0.14740916	0.46115027	1.0257617	0.1490457	0.38557001	1.0255675	0.18947971	0.24780045	1.0230095	0.024293221	0.34709213	1.0323241	-0.15418402	0.44275375	1.0400562	-0.12593079	0.44077365	1.4523508	0.015715284	0.34018558	1.4678022	0.22133453	0.32777887	1.4850383	-0.16600778	0.49393851	1.2965178	0.0076336465	0.44830414	1.4157089	-0.101563	0.35530161	0.49363358	0.093485199	0.34707889	0.51847644	0.18258466	0.45110425	0.67534344	0.16027826	0.30783853	0.10652431	0.10759321	0.28432144	0.10167905	0.19880084	0.3090704	0.37566904	0.2156441	0.20501614	0.061578743	0.15133417
3470	34.69	0.44237268	0.064169586	0.14742082	0.46094382	1.0257123	0.14898714	0.38531461	1.0255072	0.18934744	0.24764474	1.022963	0.024063288	0.34735959	1.0322572	-0.15431216	0.44268469	1.0399225	-0.12600955	0.44062112	1.4522703	0.015492178	0.33997726	1.4677914	0.22111148	0.327633	1.484832	-0.16623143	0.49375171	1.2964122	0.0074851317	0.44813144	1.4155428	-0.10177087	0.35505917	0.49360364	0.093430786	0.34683722	0.51846143	0.1825576	0.45085861	0.67529852	0.16022388	0.30781598	0.10650443	0.10759377	0.28429349	0.10165429	0.19880809	0.30889474	0.3756507	0.21564307	0.20500647	0.061546642	0.15134248
3471	34.7	0.44235706	0.064171425	0.14743225	0.4607345	1.0256686	0.14892764	0.38507294	1.0254592	0.18922717	0.24748373	1.0229329	0.023839388	0.34752774	1.0321885	-0.15443449	0.44260468	1.0397911	-0.12608639	0.44046811	1.4521931	0.015276378	0.33976117	1.4677769	0.22088863	0.32748605	1.4846372	-0.16645079	0.49356992	1.2963079	0.0073358178	0.44796567	1.415382	-0.10197692	0.35480951	0.49358063	0.093382675	0.34659738	0.51844934	0.18253217	0.45062186	0.67526056	0.16015138	0.30779327	0.10648721	0.10759749	0.28426562	0.1016297	0.19881789	0.30872186	0.37563489	0.21564459	0.20499727	0.061512333	0.15135402
3472	34.71	0.44234253	0.064173622	0.14744276	0.46052512	1.0256335	0.14886441	0.38484402	1.0254252	0.18911806	0.24731464	1.0229187	0.023633335	0.34759171	1.0321213	-0.15454967	0.44250674	1.0396683	-0.12616232	0.44031052	1.4521234	0.015069707	0.33954272	1.4677654	0.22066495	0.32734225	1.4844672	-0.16666495	0.4933913	1.2962087	0.007185595	0.4478082	1.4152335	-0.1021806	0.35455676	0.49356473	0.093340401	0.34636426	0.51844116	0.18250641	0.45039276	0.67523138	0.16006331	0.3077713	0.106473	0.10760361	0.28423929	0.1016072	0.19882918	0.30855524	0.37562302	0.21564539	0.20498869	0.061477989	0.15136774
3473	34.72	0.44232962	0.064176392	0.14745186	0.46031693	1.0256095	0.14879567	0.38462067	1.0254058	0.18901759	0.24713452	1.0229187	0.023454063	0.34755832	1.0320597	-0.15465669	0.44238553	1.039559	-0.12623796	0.44014774	1.4520634	0.014872261	0.33932791	1.4677625	0.22043933	0.3272048	1.48433	-0.16687509	0.49321338	1.2961176	0.0070347648	0.447659	1.4151027	-0.102381	0.35430539	0.49355502	0.093303001	0.34614224	0.51843689	0.18247908	0.45016818	0.67521204	0.1599633	0.30775061	0.10646177	0.10761105	0.28421579	0.10158835	0.19884091	0.30839737	0.3756156	0.21564316	0.20498055	0.061445591	0.15138194
3474	34.73	0.44231863	0.064179955	0.14745938	0.46010892	1.0255985	0.14872083	0.3843931	1.0254005	0.18892244	0.24694046	1.0229298	0.023305702	0.34743863	1.0320056	-0.15475485	0.44223721	1.0394667	-0.12631352	0.43998245	1.4520135	0.014681841	0.3391225	1.4677739	0.22021159	0.32707629	1.4842292	-0.16708424	0.49303381	1.2960355	0.0068832912	0.44751697	1.4149929	-0.10257728	0.35406155	0.49355023	0.09326873	0.34593491	0.51843658	0.18244954	0.44994528	0.6752027	0.15985628	0.30773178	0.10645332	0.10761841	0.28419592	0.10157408	0.19885204	0.30825037	0.37561218	0.2156364	0.20497276	0.061416718	0.15139471
3475	34.74	0.44230966	0.064184395	0.14746527	0.45989807	1.0256019	0.14864059	0.38415292	1.0254081	0.18882945	0.24672981	1.0229476	0.023187231	0.34724274	1.03196	-0.15484384	0.44205972	1.0393923	-0.12638898	0.43981946	1.451973	0.014494379	0.33893149	1.4678041	0.21998265	0.3269585	1.4841644	-0.16729559	0.4928515	1.2959633	0.0067305527	0.44738101	1.4149056	-0.10276911	0.3538335	0.49354913	0.093235481	0.34574548	0.5184397	0.18241753	0.44972293	0.67520361	0.15974857	0.30771539	0.1064474	0.10762451	0.28418027	0.10156473	0.1988614	0.3081163	0.37561179	0.21562416	0.20496524	0.061392635	0.15140494
3476	34.75	0.44230261	0.064189606	0.14746944	0.45968066	1.0256202	0.14855669	0.38389511	1.0254266	0.18873672	0.24650066	1.0229675	0.02309334	0.34697647	1.0319216	-0.15492456	0.44185333	1.0393365	-0.12646425	0.4396636	1.4519406	0.0143056	0.33875897	1.4678562	0.21975455	0.32685242	1.484132	-0.16751074	0.49266638	1.2958994	0.0065759244	0.44725037	1.4148389	-0.10295707	0.35363028	0.49355069	0.093201797	0.34557663	0.5184458	0.1823831	0.44950269	0.6752149	0.15964748	0.30770197	0.10644384	0.10762868	0.28416879	0.10156009	0.19886809	0.30799716	0.37561334	0.21560597	0.20495804	0.061374187	0.15141238
3477	34.76	0.4422973	0.06419532	0.14747174	0.45945352	1.0256526	0.14847171	0.38361908	1.0254542	0.1886441	0.24625256	1.022986	0.023015936	0.34664029	1.0318883	-0.15499947	0.44162085	1.0392987	-0.12653942	0.43951871	1.4519137	0.014112808	0.33860785	1.4679321	0.21953061	0.32675818	1.4841249	-0.16772887	0.49247968	1.2958427	0.0064196939	0.44712476	1.4147886	-0.10314196	0.3534599	0.49355453	0.093167419	0.34543011	0.51845428	0.18234653	0.44928748	0.67523633	0.15955981	0.30769159	0.10644217	0.10763063	0.28416107	0.10155957	0.19887157	0.30789468	0.37561606	0.21558199	0.20495139	0.061361465	0.15141721
3478	34.77	0.44229361	0.064201324	0.14747223	0.45921503	1.0256974	0.14838853	0.38332788	1.0254879	0.18855261	0.24598709	1.0230006	0.022945944	0.34623172	1.0318572	-0.15507201	0.44136737	1.0392765	-0.12661482	0.43938751	1.4518916	0.013915662	0.33847922	1.4680317	0.21931506	0.32667578	1.4841367	-0.1679462	0.49229285	1.2957914	0.0062635646	0.44700458	1.4147496	-0.10332415	0.35332721	0.49356058	0.09313311	0.34530609	0.5184649	0.18230817	0.44908029	0.67526758	0.15949107	0.30768393	0.10644175	0.1076303	0.28415659	0.10156236	0.19887173	0.3078096	0.3756196	0.21555276	0.2049456	0.061353825	0.15141988
